PathFileType	4	(X/Y/Z)	C:\Users\Basilio\Documents\Thesis Gigler\squatting_fais\c3dfiles\039\SLS_pre_front4\markers_experimental.trc
DataRate	CameraRate	NumFrames	NumMarkers	Units	OrigDataRate	OrigDataStartFrame	OrigNumFrames
200.000000	200.000000	4	63	mm	200.000000	0	1999
Frame#	Time	FHD			LBHD			RBHD			C7			T10			CLAV			LSHO			LUUPA			LMUPA			LDUPA			LLEP			LMEP			LRAD			LUL			LRFIN			RSHO			RUPA1			RMUPA			RDUPA			RLEP			RMEP			RRAD			RUL			RUFIN			LASI			RASI			USACR			LSACR			RSACR			LTHI1			LTHI2			LTHI3			LTHI4			LLFC			LMFC			LTIB1			LTIB2			LTIB3			LTIB4			LLMAL			LMMAL			LHEE			LMT1			LMT2			LMT5			RTHI			RTHI2			RTHI3			RTHI4			RLFC			RMFC			RTIB1			RTIB2			RTIB3			RTIB4			RLMAL			RMMAL			RHEE			RMT1			RMT2			RMT5			*61			*62			
		X1	Y1	Z1	X2	Y2	Z2	X3	Y3	Z3	X4	Y4	Z4	X5	Y5	Z5	X6	Y6	Z6	X7	Y7	Z7	X8	Y8	Z8	X9	Y9	Z9	X10	Y10	Z10	X11	Y11	Z11	X12	Y12	Z12	X13	Y13	Z13	X14	Y14	Z14	X15	Y15	Z15	X16	Y16	Z16	X17	Y17	Z17	X18	Y18	Z18	X19	Y19	Z19	X20	Y20	Z20	X21	Y21	Z21	X22	Y22	Z22	X23	Y23	Z23	X24	Y24	Z24	X25	Y25	Z25	X26	Y26	Z26	X27	Y27	Z27	X28	Y28	Z28	X29	Y29	Z29	X30	Y30	Z30	X31	Y31	Z31	X32	Y32	Z32	X33	Y33	Z33	X34	Y34	Z34	X35	Y35	Z35	X36	Y36	Z36	X37	Y37	Z37	X38	Y38	Z38	X39	Y39	Z39	X40	Y40	Z40	X41	Y41	Z41	X42	Y42	Z42	X43	Y43	Z43	X44	Y44	Z44	X45	Y45	Z45	X46	Y46	Z46	X47	Y47	Z47	X48	Y48	Z48	X49	Y49	Z49	X50	Y50	Z50	X51	Y51	Z51	X52	Y52	Z52	X53	Y53	Z53	X54	Y54	Z54	X55	Y55	Z55	X56	Y56	Z56	X57	Y57	Z57	X58	Y58	Z58	X59	Y59	Z59	X60	Y60	Z60	X61	Y61	Z61	X62	Y62	Z62	X63	Y63	Z63	

1	0	-182.4918518066407	1782.500366210938	-770.0656738281252	-329.6698608398438	1770.915161132813	-905.7427978515627	-315.5578002929688	1769.061767578125	-764.7614135742189	-390.8807678222657	1603.10986328125	-850.5054931640627	-402.322723388672	1286.80859375	-860.3988037109377	-245.4512939453126	1532.673950195313	-853.822937011719	-313.6607666015626	1570.398071289063	-1044.744750976563	-358.6713562011719	1343.8046875	-1133.827392578125	-311.6043395996094	1328.639038085938	-1127.2021484375	-341.6580505371094	1276.479858398438	-1139.555541992188	-328.0582885742188	1213.77490234375	-1143.263427734375	-362.7616271972657	1196.849243164063	-1071.637939453125	-178.5751037597657	970.2293090820315	-1091.885986328125	-227.5318145751954	955.4428710937502	-1148.204711914063	-133.8700256347657	896.675720214844	-1109.34130859375	-288.6150207519532	1547.940551757813	-657.0519409179689	-359.3413085937501	1321.507446289063	-589.9972534179689	-314.5489807128907	1300.6865234375	-591.7120361328126	-352.2316284179688	1252.673217773438	-591.6439208984376	-332.9564208984376	1192.845581054688	-590.2720947265626	-363.5783081054688	1180.584228515625	-665.1776733398439	-167.2379760742188	948.6060791015627	-644.7205200195314	-222.4333190917969	928.838562011719	-595.4039916992189	-121.5174407958985	873.6755981445315	-616.8899536132814	-224.5224761962891	1109.292114257813	-980.0943603515627	-219.3519439697266	1095.320678710938	-755.5319213867189	-406.3382263183595	1158.81005859375	-858.2012939453127	-410.0291748046876	1127.88818359375	-887.812927246094	-414.0930480957032	1126.464599609375	-830.364440917969	-295.3369750976563	828.2254638671877	-1050.858764648438	-265.6473693847657	749.9881591796876	-1048.527099609375	-218.6964874267579	752.2333984375001	-1039.037841796875	-294.9007568359376	697.9525146484376	-1038.792358398438	-302.2943115234376	574.1090698242189	-1035.904907226563	-275.6330261230469	548.4797363281251	-921.3729248046877	-262.7289123535157	421.1962280273439	-1011.805786132813	-332.4477233886719	387.571746826172	-1054.091186523438	-293.0563049316407	377.8379516601563	-1037.85205078125	-303.6004333496094	299.4321899414063	-999.5178833007815	-385.5626831054689	142.8101043701172	-1030.912475585938	-370.0769958496094	138.8655548095703	-946.6132812500002	-459.6724548339845	110.1474990844727	-995.4631347656252	-233.0874481201172	56.7883987426758	-972.0234985351565	-239.6405181884766	57.66290283203126	-1015.092834472656	-287.4763793945313	42.59155654907227	-1065.503295898438	-279.8121643066407	826.4422607421877	-683.9973754882814	-239.7461547851563	772.9790039062502	-676.5157470703126	-208.9032287597657	777.8343505859377	-679.1596679687501	-264.8829650878907	691.5588378906251	-685.6742553710939	-297.4476013183594	552.3810424804689	-708.2412719726564	-247.5818786621094	535.9187011718751	-815.5955810546877	-281.3349609375001	337.8748168945313	-709.8947753906251	-373.6881103515626	283.1515502929688	-715.8457641601564	-330.5016784667969	268.9412841796876	-706.0014038085939	-313.3553466796876	217.1342315673829	-732.4483032226564	-388.9535217285157	127.4925689697266	-716.4082031250001	-349.6120910644532	144.0095367431641	-795.6016235351565	-454.0657653808595	105.3019104003907	-771.1724243164065	-230.7078247070313	58.15516281127931	-777.3221435546877	-235.3046875000001	59.36291503906251	-731.7005004882814	-290.4464416503907	40.79438018798829	-682.0144042968751	nan	nan	nan	nan	nan	nan	
2	0.005	-182.703353881836	1782.522827148438	-770.3320922851565	-329.7918395996094	1770.873901367188	-905.941833496094	-315.7713623046876	1769.101684570313	-764.9445190429689	-390.9981079101564	1603.074096679688	-850.6641235351565	-402.2772216796876	1286.724609375	-860.5491333007815	-245.5119018554688	1532.6748046875	-853.9780883789065	-313.7782897949219	1570.38525390625	-1044.89697265625	-358.7392883300782	1343.731567382813	-1133.966552734375	-311.6681823730469	1328.589965820313	-1127.359497070313	-341.7224121093751	1276.401489257813	-1139.661010742188	-328.0708007812501	1213.703857421875	-1143.407104492188	-362.7933654785157	1196.775390625	-1071.7685546875	-178.7475280761719	970.0451660156252	-1092.204345703125	-227.7612304687501	955.342224121094	-1148.484985351563	-134.139144897461	896.4995117187502	-1109.701171875	-288.7015380859376	1547.900146484375	-657.2060546875001	-359.3940429687501	1321.425903320313	-590.1619873046876	-314.5949401855469	1300.722045898438	-591.9786987304689	-352.3088989257813	1252.621215820313	-591.9042968750001	-333.0144653320313	1192.798095703125	-590.4728393554689	-363.6527099609376	1180.53125	-665.4758300781251	-167.4554901123047	948.3802490234377	-644.9434204101564	-222.8992767333985	928.3310546875002	-595.5746459960939	-121.5589141845703	873.7199707031252	-616.7351684570314	-224.3112945556641	1109.291381835938	-980.254333496094	-219.3175506591797	1095.293090820313	-755.7122802734376	-406.2301025390626	1158.763061523438	-858.3853759765627	-409.8697814941407	1127.844970703125	-887.979431152344	-413.9848937988282	1126.431518554688	-830.5025024414065	-295.2017517089844	828.187683105469	-1050.996215820313	-265.5011291503907	749.9711914062501	-1048.6796875	-218.5840911865235	752.2238159179689	-1039.168579101563	-294.8215026855469	697.9380493164064	-1038.91357421875	-302.2377014160157	574.1054077148439	-1036.001953125	-275.5954284667969	548.4694213867189	-921.4431762695315	-262.6446838378907	421.1376037597657	-1011.839233398438	-332.3254394531251	387.6378479003907	-1054.2265625	-293.0140075683594	377.7790832519532	-1037.934204101563	-303.6004028320313	299.4165039062501	-999.5491943359377	-385.5474548339845	142.7897033691407	-1030.927612304688	-370.0843200683594	138.8757476806641	-946.6102294921877	-459.6780700683595	110.1500320434571	-995.4326171875002	-233.1086883544922	56.78499984741212	-972.050720214844	-239.6387329101563	57.68532943725587	-1015.126220703125	-287.4583129882813	42.58175277709962	-1065.50439453125	-279.6473083496094	826.4202880859377	-684.1621704101564	-239.2772521972657	773.6549072265627	-676.5050659179689	-208.8164978027344	777.8484497070315	-679.2493896484376	-264.6708984375001	691.5214843750001	-685.7595214843751	-297.3274230957032	552.3746948242189	-708.2877197265626	-247.4450988769532	535.8643188476564	-815.6859130859377	-281.3312377929688	337.8583374023438	-709.9012451171876	-373.6837463378907	283.1734313964844	-715.9116210937501	-330.4858703613282	268.9498901367188	-706.0445556640626	-313.3475952148438	217.1564941406251	-732.4536132812501	-389.015106201172	127.4847183227539	-716.4438476562501	-349.5979003906251	144.025375366211	-795.6004028320315	-454.0701904296876	105.2991333007813	-771.1948852539065	-230.6536712646485	58.22648239135744	-777.2612915039065	-235.2756042480469	59.47316360473634	-731.6461181640626	-290.4521484375001	40.78962707519532	-682.0423583984376	nan	nan	nan	nan	nan	nan	
3	0.01	-182.920639038086	1782.579711914063	-770.4826660156252	-330.0213012695313	1770.863525390625	-906.1634521484377	-315.9576110839844	1769.093139648438	-765.1470947265626	-391.0671691894532	1602.9736328125	-850.798034667969	-400.9794311523439	1287.036499023438	-860.1091918945315	-245.5730438232422	1532.685546875	-854.1669921875002	-313.8554687500001	1570.327270507813	-1045.069213867188	-358.8368835449219	1343.668579101563	-1134.10009765625	-311.7261657714844	1328.543334960938	-1127.532958984375	-341.7682495117188	1276.353271484375	-1139.782836914063	-328.1334838867188	1213.675048828125	-1143.551635742188	-362.8047790527344	1196.72265625	-1071.920532226563	-178.8486785888672	969.9075317382815	-1092.633422851563	-227.9645233154297	955.2205810546877	-1148.813598632813	-134.3569946289063	896.292907714844	-1110.00439453125	-288.7903137207032	1547.868286132813	-657.3682861328126	-359.5136108398438	1321.421630859375	-590.3176879882814	-314.6614379882813	1300.687744140625	-592.2109375000001	-352.3841247558594	1252.571411132813	-592.1427001953126	-333.0933227539063	1192.765258789063	-590.6998901367189	-363.6700134277344	1180.475708007813	-665.6494140625001	-167.6488189697266	948.1840820312502	-645.1163940429689	-223.1578063964844	928.2475585937502	-595.7058715820314	-122.2714004516602	873.1296997070315	-617.1371459960939	-224.0613708496094	1109.329467773438	-980.4722900390627	-219.2889709472657	1095.23974609375	-755.7967529296876	-406.1181945800782	1158.70751953125	-858.5640869140627	-409.7794799804689	1127.822998046875	-888.1490478515627	-413.8810424804689	1126.40087890625	-830.6687011718752	-295.0809936523438	828.1614379882815	-1051.115234375	-265.3848876953126	749.9617919921876	-1048.7412109375	-218.4808197021485	752.2100219726564	-1039.224975585938	-294.6904907226563	697.9214477539064	-1039.050170898438	-302.1367187500001	574.0623779296876	-1036.109130859375	-275.5515747070313	548.4540405273439	-921.5090942382815	-262.5910034179688	421.0930480957032	-1011.890869140625	-332.2799072265626	387.5644531250001	-1054.265258789063	-293.0145568847657	377.7824096679688	-1038.010498046875	-303.4468078613282	299.4557189941407	-999.5769653320315	-385.5349121093751	142.8040161132813	-1030.931884765625	-370.0843200683594	138.8757476806641	-946.6102294921877	-459.6700439453126	110.1640014648438	-995.4388427734377	-233.1114349365235	56.78659820556642	-972.0347900390627	-239.6106567382813	57.6395950317383	-1015.086853027344	-287.4567260742188	42.58222579956055	-1065.518798828125	-279.4772033691407	826.4388427734377	-684.3053588867189	-239.1878356933594	773.614440917969	-676.5915527343751	-208.8799743652344	777.8387451171877	-679.1868286132814	-264.5371093750001	691.4903564453126	-685.8670654296876	-297.2846984863282	552.6444702148439	-708.5776977539064	-247.3077392578126	535.8682250976564	-815.7229614257815	-281.2475280761719	337.8431091308594	-709.9447021484376	-373.6095886230469	283.1928405761719	-715.9877319335939	-330.4607238769532	268.9545593261719	-706.0894165039064	-313.3084411621094	217.146469116211	-732.4134521484376	-389.0064697265626	127.5119705200196	-716.4678955078126	-349.5607299804688	144.0092315673828	-795.613952636719	-454.1084289550782	105.3109664916992	-771.1943359375002	-230.6190490722657	58.31005477905275	-777.2485351562502	-235.0800476074219	59.43176651000978	-731.5098876953126	-290.2723693847657	40.33550262451173	-682.4050292968751	nan	nan	nan	nan	nan	nan	
4	0.015	-183.0968933105469	1782.626220703125	-770.7214355468752	-330.0425720214844	1770.766723632813	-906.4824218750002	-316.1261901855469	1769.118774414063	-765.3400878906251	-391.1679687500001	1602.938354492188	-850.9285278320315	-402.1099243164064	1286.587524414063	-860.8602294921877	-245.6132507324219	1532.704223632813	-854.263366699219	-314.0181274414063	1570.299560546875	-1045.215454101563	-358.9011535644532	1343.617431640625	-1134.188720703125	-311.7714538574219	1328.480712890625	-1127.642333984375	-341.7684631347657	1276.294677734375	-1139.89892578125	-328.1854858398438	1213.63427734375	-1143.68359375	-362.8133239746094	1196.653198242188	-1072.073486328125	-178.801025390625	969.3231201171877	-1092.953491210938	-228.1701812744141	955.1225585937502	-1149.114624023438	-134.5368804931641	896.1346435546877	-1110.399658203125	-288.9210510253907	1547.875366210938	-657.5457153320314	-359.5970458984376	1321.355346679688	-590.4932861328126	-314.6990356445313	1300.676513671875	-592.4685668945314	-352.4547424316407	1252.51953125	-592.3656616210939	-333.1790466308594	1192.712524414063	-590.8656616210939	-363.7414245605469	1180.484008789063	-665.9338378906251	-167.896224975586	947.9832763671877	-645.2817993164064	-223.3587341308594	928.1138916015627	-595.8128662109376	-122.5616073608399	872.9450683593752	-617.2352294921876	-223.8502807617188	1109.35400390625	-980.629821777344	-219.2146453857422	1095.238525390625	-755.9274291992189	-406.0112304687501	1158.647827148438	-858.745056152344	-409.6659545898439	1127.740234375	-888.3286132812502	-413.7705078125001	1126.375	-830.8408813476565	-294.9534912109376	828.162536621094	-1051.238159179688	-265.2656250000001	749.9558105468751	-1048.853271484375	-218.3720092773438	752.1989135742189	-1039.34375	-294.5341491699219	697.8786621093751	-1039.146850585938	-302.0169372558594	574.0487670898439	-1036.183227539063	-275.4289550781251	548.4984741210939	-921.5818481445315	-262.5029296875001	421.0960083007814	-1011.96533203125	-332.1589965820313	387.5824584960939	-1054.345581054688	-292.9082336425782	377.7705383300782	-1038.067138671875	-303.3674621582032	299.4163513183594	-999.6606445312502	-385.5477294921876	142.7913665771485	-1030.933959960938	-370.1018371582032	138.9103546142578	-946.6437988281252	-459.6453857421876	110.1749801635742	-995.4313964843752	-233.0952758789063	56.78156661987306	-972.0502929687502	-239.6777038574219	57.67812347412111	-1015.153686523438	-287.4926452636719	42.58118438720704	-1065.501098632813	-279.3210449218751	826.4309692382815	-684.4252929687501	-239.0269927978516	773.619812011719	-676.6848754882814	-209.0918731689454	777.8699951171877	-679.0426635742189	-264.3642883300782	691.4749755859376	-685.9708862304689	-297.1230468750001	552.6399536132814	-708.6123657226564	-247.5497436523438	535.7849121093751	-815.4205322265627	-281.2092285156251	337.8519287109376	-709.9125366210939	-373.5784912109376	283.2234802246094	-716.0019531250001	-330.4370117187501	268.9828186035157	-706.1344604492189	-313.3032226562501	217.1353302001954	-732.4178466796876	-388.9840698242189	127.5237884521485	-716.4893798828126	-349.5710754394532	144.0264892578125	-795.6011962890627	-454.0738830566407	105.3075180053711	-771.2107543945315	-230.6205444335938	58.32187271118165	-777.2056884765627	-235.0972595214844	59.52567291259767	-731.4847412109376	-290.2562866210938	40.38562393188477	-682.4163208007814	nan	nan	nan	nan	nan	nan	
